<svg xmlns="http://www.w3.org/2000/svg" x="0" y="0" width="170" height="21" viewBox="0 0 425 51"><g transform="translate(-48.96 -47.86)"><path d="M78.48 75.71c6.33-1.97 10.58-7.21 10.58-13.06 0-7.6-6.93-13.78-15.44-13.78H48.96v48.87h8.23V78.43h5.97c5.11 0 6.7.16 9.35 3.86l10.07 15.45h9.5L77.79 75.93zm-21.3-4.72V56.31H73.8c3.97 0 7.04 3.95 7.04 7.34 0 4.2-3.81 7.34-7.21 7.34H57.18z" fill="#27211f"></path><path d="M145.54 48.89l-22.58 48.85h8.8l4.9-10.69 22.07-.04 4.85 10.72h8.81l-22.6-48.87zm-5.58 30.72l7.52-16.47h.38l7.5 16.46z" fill="#27211f"></path><path d="M185.63 73.27c0-9.75 7.9-17.69 17.62-17.69 4.62 0 9.37 2.16 13.37 6.08l.27.27 6.07-5.52-.32-.3c-3.24-3-6.23-5.05-9.14-6.27-3.38-1.35-6.93-2.06-10.25-2.06-3.61 0-7 .65-10.36 1.99-3.18 1.34-6.05 3.28-8.3 5.61-4.85 4.75-7.51 11.1-7.51 17.9 0 6.8 2.66 13.15 7.48 17.87 2.25 2.33 5.06 4.23 8.35 5.65 3.38 1.38 6.76 2.06 10.33 2.06 3.51 0 7.06-.72 10.28-2.07 3.03-1.35 6.1-3.49 9.11-6.35l.32-.31-6.27-5.43-.27.27c-3.85 3.86-8.66 6.07-13.18 6.07-9.7-.01-17.6-7.98-17.6-17.77z" fill="#27211f"></path><path fill="#27211f" d="M242.64 77.4h23.45l-.02 20.34h8.39V48.87h-8.39l.02 21.09h-23.45l-.02-21.09h-8.37v48.87h8.37z"></path><path d="M295.9 82.02V48.87h-8.38v33.15c0 2.31 1.42 16.82 20.15 16.82 18.73 0 20.06-14.51 20.06-16.82V48.87h-8.39l.01 33.15c0 5.13-5.04 9.29-11.68 9.29-6.69.01-11.77-4.15-11.77-9.29z" fill="#27211f"></path><path fill="#27211f" d="M349.01 56.31h24.39v-7.44h-32.61v48.87h32.61V90.3h-24.39V77.4h22.3v-7.44h-22.3z"></path><path d="M466.32 55.42c-5.02-4.93-11.57-7.65-18.42-7.65-7.2 0-13.88 2.81-18.84 7.9-4.66 4.79-7.33 11.21-7.33 17.6 0 13.87 11.98 25.58 26.16 25.58 7.1 0 13.76-2.85 18.77-8.04 4.7-4.87 7.4-11.26 7.4-17.54 0-6.51-2.82-13.02-7.74-17.85zM447.9 91.06c-9.73 0-17.64-7.98-17.64-17.79 0-9.76 7.91-17.71 17.64-17.71 9.68 0 17.55 7.94 17.55 17.71 0 9.81-7.87 17.79-17.55 17.79z" fill="#27211f"></path><path fill="#27211f" d="M103.36 48.87h8.39v48.87h-8.39z"></path><path d="M394.73 83.96V48.87h-8.39v35.08c0 7.6 6.85 13.78 15.27 13.78h17.41V90.3h-17.41c-3.88 0-6.88-2.84-6.88-6.34z" fill="#27211f"></path></g></svg>
